<svg xmlns="http://www.w3.org/2000/svg" width="243" height="74"><path fill="#333" d="M18.22 35.908h13.356v-1.736H16.484V53.8h1.736v-8.736h7.084v-1.82H18.22v-7.336zM42.38 34.2q-3.164 0-5.432 2.268-2.296 2.296-2.296 5.46v4.228q0 3.108 2.296 5.404t5.432 2.296q3.164 0 5.46-2.296 2.268-2.268 2.268-5.404v-4.228q0-3.192-2.268-5.46T42.38 34.2zm5.992 7.728v4.228q0 2.548-1.792 4.284-1.764 1.68-4.2 1.68t-4.172-1.68q-1.792-1.736-1.792-4.284v-4.228q0-2.352 1.792-4.2Q40 35.936 42.38 35.936q2.352 0 4.2 1.792 1.792 1.848 1.792 4.2zM61.807 34.2q-3.164 0-5.432 2.268-2.296 2.296-2.296 5.46v4.228q0 3.108 2.296 5.404t5.432 2.296q3.164 0 5.46-2.296 2.268-2.268 2.268-5.404v-4.228q0-3.192-2.268-5.46t-5.46-2.268zm5.992 7.728v4.228q0 2.548-1.792 4.284-1.764 1.68-4.2 1.68t-4.172-1.68q-1.792-1.736-1.792-4.284v-4.228q0-2.352 1.792-4.2 1.792-1.792 4.172-1.792 2.352 0 4.2 1.792 1.792 1.848 1.792 4.2zm12.036-7.756h-6.048V53.8h6.048q4.088 0 7-2.856 2.996-2.94 2.996-7.14 0-3.976-2.996-6.832-2.94-2.8-7-2.8zm0 17.864H75.55V35.992h4.284q3.5 0 5.88 2.296 2.352 2.296 2.352 5.516 0 3.5-2.352 5.852-2.38 2.38-5.88 2.38zm29.867-17.864h-6.048V53.8h6.048q4.088 0 7-2.856 2.996-2.94 2.996-7.14 0-3.976-2.996-6.832-2.94-2.8-7-2.8zm0 17.864h-4.284V35.992h4.284q3.5 0 5.88 2.296 2.352 2.296 2.352 5.516 0 3.5-2.352 5.852-2.38 2.38-5.88 2.38zm15.815-3.612q0-1.344.952-2.436.952-1.148 2.296-1.148h5.6v-1.736h-5.6q-1.428-.28-2.338-1.232t-.91-2.268q0-1.652.966-2.618t2.646-.966h9.52v-1.764h-9.52q-2.156 0-3.752 1.596-1.596 1.54-1.596 3.752 0 1.4.532 2.548t1.568 1.652q-1.036.756-1.568 1.988t-.532 2.632q0 2.184 1.596 3.724 1.624 1.624 3.752 1.624h9.52v-1.848h-9.52q-1.68 0-2.646-.952t-.966-2.548zm16.796 5.432h13.692v-1.428h-11.956V34.2h-1.736v19.656zm17.047-.028h1.764V34.144h-1.764v19.684zm20.94-19.74h-2.128L172.208 48.9l-5.628-14.812h-1.764l7.392 19.712zm5.231 14.336q0-1.344.952-2.436.952-1.148 2.296-1.148h5.6v-1.736h-5.6q-1.428-.28-2.338-1.232t-.91-2.268q0-1.652.966-2.618t2.646-.966h9.52v-1.764h-9.52q-2.156 0-3.752 1.596-1.596 1.54-1.596 3.752 0 1.4.532 2.548t1.568 1.652q-1.036.756-1.568 1.988t-.532 2.632q0 2.184 1.596 3.724 1.624 1.624 3.752 1.624h9.52v-1.848h-9.52q-1.68 0-2.646-.952t-.966-2.548zm25.196-4.452h2.1q2.128 0 3.528-1.4t1.4-3.528q0-1.876-1.4-3.36-1.484-1.54-3.528-1.54h-10.5V53.8h1.736v-9.828h4.564l5.964 9.828h2.1zm-6.664-1.736v-6.328h8.764q1.288 0 2.268.924.924.924.924 2.212 0 1.344-.924 2.268-.98.924-2.268.924h-8.764zm32.615-8.036h-1.736v2.072q0 2.576-1.792 4.312-1.764 1.68-4.2 1.68-2.604 0-4.284-1.68t-1.68-4.312V34.2h-1.736v2.072q0 3.136 1.904 5.32 1.876 2.212 4.76 2.408v9.828h1.764V44q2.94-.224 4.956-2.408 2.044-2.184 2.044-5.32V34.2z"/></svg>