<?xml version="1.0"?>
<svg version="1.1" xmlns="http://www.w3.org/2000/svg" width="243" height="74" style=""><path fill="#333333" d="M18.22,35.908l13.356,0l0-1.736l-15.092,0l0,0.336l0,19.292l1.736,0l0-8.736l7.084,0l0-1.82l-7.084,0l0-7.336z M42.37952,34.2q-3.164,0-5.432,2.268q-2.296,2.296-2.296,5.46l0,4.228q0,3.108,2.296,5.404t5.432,2.296q3.164,0,5.46-2.296q2.268-2.268,2.268-5.404l0-4.228q0-3.192-2.268-5.46t-5.46-2.268z M48.37152,41.928l0,4.228q0,2.548-1.792,4.284q-1.764,1.68-4.2,1.68t-4.172-1.68q-1.792-1.736-1.792-4.284l0-4.228q0-2.352,1.792-4.2q1.792-1.792,4.172-1.792q2.352,0,4.2,1.792q1.792,1.848,1.792,4.2z M61.80704,34.2q-3.164,0-5.432,2.268q-2.296,2.296-2.296,5.46l0,4.228q0,3.108,2.296,5.404t5.432,2.296q3.164,0,5.46-2.296q2.268-2.268,2.268-5.404l0-4.228q0-3.192-2.268-5.46t-5.46-2.268z M67.79904,41.928l0,4.228q0,2.548-1.792,4.284q-1.764,1.68-4.2,1.68t-4.172-1.68q-1.792-1.736-1.792-4.284l0-4.228q0-2.352,1.792-4.2q1.792-1.792,4.172-1.792q2.352,0,4.2,1.792q1.792,1.848,1.792,4.2z M79.83456,34.172l-4.284,0l-1.064,0l-0.7,0l0,19.628l0.7,0l1.064,0l4.284,0q4.088,0,7-2.856q2.996-2.94,2.996-7.14q0-3.976-2.996-6.832q-2.94-2.8-7-2.8z M79.83456,52.036l-4.284,0l0-16.044l4.284,0q3.5,0,5.88,2.296q2.352,2.296,2.352,5.516q0,3.5-2.352,5.852q-2.38,2.38-5.88,2.38z M109.7016,34.172l-4.284,0l-1.064,0l-0.7,0l0,19.628l0.7,0l1.064,0l4.284,0q4.088,0,7-2.856q2.996-2.94,2.996-7.14q0-3.976-2.996-6.832q-2.94-2.8-7-2.8z M109.7016,52.036l-4.284,0l0-16.044l4.284,0q3.5,0,5.88,2.296q2.352,2.296,2.352,5.516q0,3.5-2.352,5.852q-2.38,2.38-5.88,2.38z M125.51712,48.424q0-1.344,0.952-2.436q0.952-1.148,2.296-1.148l0.364,0l5.236,0l0-1.736l-5.236,0l-0.364,0q-1.428-0.28-2.338-1.232t-0.91-2.268q0-1.652,0.966-2.618t2.646-0.966l9.52,0l0-1.764l-9.52,0q-2.156,0-3.752,1.596q-1.596,1.54-1.596,3.752q0,1.4,0.532,2.548t1.568,1.652q-1.036,0.756-1.568,1.988t-0.532,2.632q0,2.184,1.596,3.724q1.624,1.624,3.752,1.624l9.52,0l0-1.848l-9.52,0q-1.68,0-2.646-0.952t-0.966-2.548z M142.31264,53.856l13.692,0l0-1.428l-11.956,0l0-18.228l-1.736,0l0,19.656z M159.36016,53.828l1.764,0l0-19.684l-1.764,0l0,19.684z M180.29968,34.088l-2.128,0l-5.964,14.812l-5.628-14.812l-1.764,0l7.392,19.712z M185.5312,48.424q0-1.344,0.952-2.436q0.952-1.148,2.296-1.148l0.364,0l5.236,0l0-1.736l-5.236,0l-0.364,0q-1.428-0.28-2.338-1.232t-0.91-2.268q0-1.652,0.966-2.618t2.646-0.966l9.52,0l0-1.764l-9.52,0q-2.156,0-3.752,1.596q-1.596,1.54-1.596,3.752q0,1.4,0.532,2.548t1.568,1.652q-1.036,0.756-1.568,1.988t-0.532,2.632q0,2.184,1.596,3.724q1.624,1.624,3.752,1.624l9.52,0l0-1.848l-9.52,0q-1.68,0-2.646-0.952t-0.966-2.548z M210.72672,43.972l2.1,0q2.128,0,3.528-1.4t1.4-3.528q0-1.876-1.4-3.36q-1.484-1.54-3.528-1.54l-8.764,0l-1.736,0l0,19.656l1.736,0l0-9.828l4.564,0l5.964,9.828l2.1,0z M204.06272,42.236l0-6.328l8.764,0q1.288,0,2.268,0.924q0.924,0.924,0.924,2.212q0,1.344-0.924,2.268q-0.98,0.924-2.268,0.924l-8.764,0z M236.67824,34.2l-1.736,0l0,2.072q0,2.576-1.792,4.312q-1.764,1.68-4.2,1.68q-2.604,0-4.284-1.68t-1.68-4.312l0-2.072l-1.736,0l0,2.072q0,3.136,1.904,5.32q1.876,2.212,4.76,2.408l0,9.828l1.764,0l0-9.828q2.94-0.224,4.956-2.408q2.044-2.184,2.044-5.32l0-2.072z"/><path fill="#" d=""/></svg>
